<svg id="SvgjsSvg1216" width="413" height="139" xmlns="http://www.w3.org/2000/svg" version="1.1" xmlns:xlink="http://www.w3.org/1999/xlink" xmlns:svgjs="http://svgjs.com/svgjs"><defs id="SvgjsDefs1217"><pattern patternUnits="userSpaceOnUse" id="pattern_mark_0" width="300" height="300"><text x="150" y="100" fill="rgba(229,229,229,0.8)" font-size="18" transform="rotate(-45, 150, 150)" style="dominant-baseline: middle; text-anchor: middle;"></text></pattern><pattern patternUnits="userSpaceOnUse" id="pattern_mark_1" width="300" height="300"><text x="150" y="200" fill="rgba(229,229,229,0.8)" font-size="18" transform="rotate(-45, 150, 150)" style="dominant-baseline: middle; text-anchor: middle;"></text></pattern></defs><rect id="svgbackgroundid" width="413" height="139" fill="transparent"></rect><rect id="SvgjsRect1219" width="413" height="139" fill="url(#pattern_mark_0)"></rect><rect id="SvgjsRect1220" width="413" height="139" fill="url(#pattern_mark_1)"></rect><g id="SvgjsG1221" transform="translate(25,25)"><path id="SvgjsPath1222" d="M 0 4Q 0 0 4 0L 359 0Q 363 0 363 4L 363 85Q 363 89 359 89L 4 89Q 0 89 0 85Z" stroke="rgba(33,41,48,1)" stroke-width="1.5" fill-opacity="1" fill="#ffffff"></path><path id="SvgjsPath1223" d="M 0 25L 108.89999999999999 25L 116.89999999999999 17L 116.89999999999999 0" stroke="rgba(33,41,48,1)" stroke-width="1.5" fill-opacity="1" fill="#ffffff"></path><path id="SvgjsPath1224" d="M 0 0L 363 0L 363 89L 0 89Z" stroke="none" fill="none"></path><g id="SvgjsG1225"><text id="SvgjsText1226" font-family="微软雅黑" text-anchor="start" font-size="13px" width="343px" fill="#323232" font-weight="700" align="top" lineHeight="125%" anchor="start" family="微软雅黑" size="13px" weight="700" font-style="" opacity="1" y="27.375" transform="rotate(0)"><tspan id="SvgjsTspan1227" dy="16.25" x="10"><tspan id="SvgjsTspan1228" style="">template &lt;typename T&gt;                                           </tspan></tspan><tspan id="SvgjsTspan1229" dy="16.25" x="10"><tspan id="SvgjsTspan1230" style=""> 函数地址 void (*function)(void *arg)</tspan></tspan><tspan id="SvgjsTspan1231" dy="16.25" x="10"><tspan id="SvgjsTspan1232" style="">函数参数 T*arg</tspan></tspan></text></g><g id="SvgjsG1233"><text id="SvgjsText1234" font-family="微软雅黑" text-anchor="start" font-size="13px" width="99px" fill="#323232" font-weight="700" align="middle" lineHeight="125%" anchor="start" family="微软雅黑" size="13px" weight="700" font-style="" opacity="1" y="1.875" transform="rotate(0)"><tspan id="SvgjsTspan1235" dy="16.25" x="10"><tspan id="SvgjsTspan1236" style="">Task(模版类)</tspan></tspan></text></g></g></svg>