<svg id="SvgjsSvg1069" width="407" height="139" xmlns="http://www.w3.org/2000/svg" version="1.1" xmlns:xlink="http://www.w3.org/1999/xlink" xmlns:svgjs="http://svgjs.com/svgjs"><defs id="SvgjsDefs1070"><pattern patternUnits="userSpaceOnUse" id="pattern_mark_0" width="300" height="300"><text x="150" y="100" fill="rgba(229,229,229,0.8)" font-size="18" transform="rotate(-45, 150, 150)" style="dominant-baseline: middle; text-anchor: middle;"></text></pattern><pattern patternUnits="userSpaceOnUse" id="pattern_mark_1" width="300" height="300"><text x="150" y="200" fill="rgba(229,229,229,0.8)" font-size="18" transform="rotate(-45, 150, 150)" style="dominant-baseline: middle; text-anchor: middle;"></text></pattern></defs><rect id="svgbackgroundid" width="407" height="139" fill="transparent"></rect><rect id="SvgjsRect1072" width="407" height="139" fill="url(#pattern_mark_0)"></rect><rect id="SvgjsRect1073" width="407" height="139" fill="url(#pattern_mark_1)"></rect><g id="SvgjsG1074" transform="translate(25,25)"><path id="SvgjsPath1075" d="M 0 4Q 0 0 4 0L 353 0Q 357 0 357 4L 357 85Q 357 89 353 89L 4 89Q 0 89 0 85Z" stroke="rgba(33,41,48,1)" stroke-width="1.5" fill-opacity="1" fill="#ffffff"></path><path id="SvgjsPath1076" d="M 0 25L 107.1 25L 115.1 17L 115.1 0" stroke="rgba(33,41,48,1)" stroke-width="1.5" fill-opacity="1" fill="#ffffff"></path><path id="SvgjsPath1077" d="M 0 0L 357 0L 357 89L 0 89Z" stroke="none" fill="none"></path><g id="SvgjsG1078"><text id="SvgjsText1079" font-family="微软雅黑" text-anchor="start" font-size="13px" width="337px" fill="#323232" font-weight="700" align="top" lineHeight="125%" anchor="start" family="微软雅黑" size="13px" weight="700" font-style="" opacity="1" y="27.375" transform="rotate(0)"><tspan id="SvgjsTspan1080" dy="16.25" x="10"><tspan id="SvgjsTspan1081" style="">template &lt;typename T&gt;函数地址 void (*function)</tspan></tspan><tspan id="SvgjsTspan1082" dy="16.25" x="10"><tspan id="SvgjsTspan1083" style="">(void *arg)</tspan></tspan><tspan id="SvgjsTspan1084" dy="16.25" x="10"><tspan id="SvgjsTspan1085" style="">函数参数 T*arg</tspan></tspan></text></g><g id="SvgjsG1086"><text id="SvgjsText1087" font-family="微软雅黑" text-anchor="start" font-size="13px" width="98px" fill="#323232" font-weight="700" align="middle" lineHeight="125%" anchor="start" family="微软雅黑" size="13px" weight="700" font-style="" opacity="1" y="1.875" transform="rotate(0)"><tspan id="SvgjsTspan1088" dy="16.25" x="10"><tspan id="SvgjsTspan1089" style="">Task(模版类)</tspan></tspan></text></g></g></svg>