<svg id="SvgjsSvg1152" width="892" height="617.1923076923076" xmlns="http://www.w3.org/2000/svg" version="1.1" xmlns:xlink="http://www.w3.org/1999/xlink" xmlns:svgjs="http://svgjs.com/svgjs"><defs id="SvgjsDefs1153"><pattern patternUnits="userSpaceOnUse" id="pattern_mark_0" width="300" height="300"><text x="150" y="100" fill="rgba(229,229,229,0.8)" font-size="18" transform="rotate(-45, 150, 150)" style="dominant-baseline: middle; text-anchor: middle;"></text></pattern><pattern patternUnits="userSpaceOnUse" id="pattern_mark_1" width="300" height="300"><text x="150" y="200" fill="rgba(229,229,229,0.8)" font-size="18" transform="rotate(-45, 150, 150)" style="dominant-baseline: middle; text-anchor: middle;"></text></pattern><marker id="SvgjsMarker1165" markerWidth="13" markerHeight="9" refX="9.5" refY="4.5" viewBox="0 0 13 9" orient="auto" markerUnits="userSpaceOnUse" stroke-dasharray="0,0"><path id="SvgjsPath1166" d="M0,0 L13,4.5 L0,9 L0,0" fill="#3b4296" stroke="#3b4296" stroke-width="1"></path></marker><marker id="SvgjsMarker1181" markerWidth="13" markerHeight="9" refX="9.5" refY="4.5" viewBox="0 0 13 9" orient="auto" markerUnits="userSpaceOnUse" stroke-dasharray="0,0"><path id="SvgjsPath1182" d="M0,0 L13,4.5 L0,9 L0,0" fill="#3b4296" stroke="#3b4296" stroke-width="1"></path></marker><marker id="SvgjsMarker1195" markerWidth="13" markerHeight="9" refX="9.5" refY="4.5" viewBox="0 0 13 9" orient="auto" markerUnits="userSpaceOnUse" stroke-dasharray="0,0"><path id="SvgjsPath1196" d="M0,0 L13,4.5 L0,9 L0,0" fill="#3b4296" stroke="#3b4296" stroke-width="1"></path></marker><marker id="SvgjsMarker1211" markerWidth="13" markerHeight="9" refX="9.5" refY="4.5" viewBox="0 0 13 9" orient="auto" markerUnits="userSpaceOnUse" stroke-dasharray="0,0"><path id="SvgjsPath1212" d="M0,0 L13,4.5 L0,9 L0,0" fill="#3b4296" stroke="#3b4296" stroke-width="1"></path></marker><marker id="SvgjsMarker1225" markerWidth="13" markerHeight="9" refX="9.5" refY="4.5" viewBox="0 0 13 9" orient="auto" markerUnits="userSpaceOnUse" stroke-dasharray="0,0"><path id="SvgjsPath1226" d="M0,0 L13,4.5 L0,9 L0,0" fill="#3b4296" stroke="#3b4296" stroke-width="1"></path></marker><marker id="SvgjsMarker1239" markerWidth="13" markerHeight="9" refX="9.5" refY="4.5" viewBox="0 0 13 9" orient="auto" markerUnits="userSpaceOnUse" stroke-dasharray="0,0"><path id="SvgjsPath1240" d="M0,0 L13,4.5 L0,9 L0,0" fill="#3b4296" stroke="#3b4296" stroke-width="1"></path></marker><marker id="SvgjsMarker1253" markerWidth="13" markerHeight="9" refX="9.5" refY="4.5" viewBox="0 0 13 9" orient="auto" markerUnits="userSpaceOnUse" stroke-dasharray="0,0"><path id="SvgjsPath1254" d="M0,0 L13,4.5 L0,9 L0,0" fill="#3b4296" stroke="#3b4296" stroke-width="1"></path></marker><marker id="SvgjsMarker1264" markerWidth="13" markerHeight="9" refX="9.5" refY="4.5" viewBox="0 0 13 9" orient="auto" markerUnits="userSpaceOnUse" stroke-dasharray="0,0"><path id="SvgjsPath1265" d="M0,0 L13,4.5 L0,9 L0,0" fill="#3b4296" stroke="#3b4296" stroke-width="1"></path></marker><marker id="SvgjsMarker1278" markerWidth="13" markerHeight="9" refX="9.5" refY="4.5" viewBox="0 0 13 9" orient="auto" markerUnits="userSpaceOnUse" stroke-dasharray="0,0"><path id="SvgjsPath1279" d="M0,0 L13,4.5 L0,9 L0,0" fill="#3b4296" stroke="#3b4296" stroke-width="1"></path></marker><marker id="SvgjsMarker1286" markerWidth="13" markerHeight="9" refX="9.5" refY="4.5" viewBox="0 0 13 9" orient="auto" markerUnits="userSpaceOnUse" stroke-dasharray="0,0"><path id="SvgjsPath1287" d="M0,0 L13,4.5 L0,9 L0,0" fill="#3b4296" stroke="#3b4296" stroke-width="1"></path></marker></defs><rect id="svgbackgroundid" width="892" height="617.1923076923076" fill="#ffffff"></rect><rect id="SvgjsRect1155" width="892" height="617.1923076923076" fill="url(#pattern_mark_0)"></rect><rect id="SvgjsRect1156" width="892" height="617.1923076923076" fill="url(#pattern_mark_1)"></rect><g id="SvgjsG1157" transform="translate(210,39.5)"><path id="SvgjsPath1158" d="M 0 4Q 0 0 4 0L 173 0Q 177 0 177 4L 177 57Q 177 61 173 61L 4 61Q 0 61 0 57Z" stroke="rgba(44,118,155,1)" stroke-width="1.5" fill-opacity="1" fill="#36a9cc"></path><g id="SvgjsG1159"><text id="SvgjsText1160" font-family="微软雅黑" text-anchor="middle" font-size="13px" width="157px" fill="#f3dfff" font-weight="700" align="middle" lineHeight="125%" anchor="middle" family="微软雅黑" size="13px" weight="700" font-style="" opacity="1" y="19.875" transform="rotate(0)"><tspan id="SvgjsTspan1161" dy="16.25" x="88.5"><tspan id="SvgjsTspan1162" style="">线程池是否关闭</tspan></tspan></text></g></g><g id="SvgjsG1163"><path id="SvgjsPath1164" d="M298.5 101.25L298.5 138L298.5 138L298.5 172.8" stroke="#3b4296" stroke-width="1.5" fill="none" marker-end="url(#SvgjsMarker1165)"></path><rect id="SvgjsRect1167" width="20" height="18" x="288.5" y="128.025" fill="#ffffff"></rect><text id="SvgjsText1168" font-family="微软雅黑" text-anchor="middle" font-size="13px" width="20px" fill="#3b4296" font-weight="700" align="top" lineHeight="16px" anchor="middle" family="微软雅黑" size="13px" weight="700" font-style="" opacity="1" y="125.4" transform="rotate(0)"><tspan id="SvgjsTspan1169" dy="16.25" x="298.5"><tspan id="SvgjsTspan1170" style="">No</tspan></tspan></text></g><g id="SvgjsG1171" transform="translate(235,175.5)"><path id="SvgjsPath1172" d="M 27.666666666666668 0L 99.33333333333333 0C 136.22222222222223 0 136.22222222222223 83 99.33333333333333 83L 27.666666666666668 83C -9.222222222222223 83 -9.222222222222223 0 27.666666666666668 0Z" stroke="rgba(44,118,155,1)" stroke-width="1.5" fill-opacity="1" fill="#36a9cc"></path><g id="SvgjsG1173"><text id="SvgjsText1174" font-family="微软雅黑" text-anchor="middle" font-size="13px" width="107px" fill="#f3dfff" font-weight="700" align="middle" lineHeight="125%" anchor="middle" family="微软雅黑" size="13px" weight="700" font-style="" opacity="1" y="22.375" transform="rotate(0)"><tspan id="SvgjsTspan1175" dy="16.25" x="63.5"><tspan id="SvgjsTspan1176" style="">任务队列空且线程</tspan></tspan><tspan id="SvgjsTspan1177" dy="16.25" x="63.5"><tspan id="SvgjsTspan1178" style="">池未关闭</tspan></tspan></text></g></g><g id="SvgjsG1179"><path id="SvgjsPath1180" d="M209.25 70L169 70L169 70L130.7 70" stroke="#3b4296" stroke-width="1.5" fill="none" marker-end="url(#SvgjsMarker1181)"></path><rect id="SvgjsRect1183" width="21" height="18" x="167.13841463414633" y="61" fill="#ffffff"></rect><text id="SvgjsText1184" font-family="微软雅黑" text-anchor="middle" font-size="13px" width="21px" fill="#3b4296" font-weight="700" align="top" lineHeight="16px" anchor="middle" family="微软雅黑" size="13px" weight="700" font-style="" opacity="1" y="58.375" transform="rotate(0)"><tspan id="SvgjsTspan1185" dy="16.25" x="177.63841463414633"><tspan id="SvgjsTspan1186" style="">Yes</tspan></tspan></text></g><g id="SvgjsG1187" transform="translate(25,25)"><path id="SvgjsPath1188" d="M 0 45C 0 -15 103 -15 103 45C 103 105 0 105 0 45Z" stroke="rgba(44,118,155,1)" stroke-width="1.5" fill-opacity="1" fill="#36a9cc"></path><g id="SvgjsG1189"><text id="SvgjsText1190" font-family="微软雅黑" text-anchor="middle" font-size="13px" width="83px" fill="#f3dfff" font-weight="700" align="middle" lineHeight="125%" anchor="middle" family="微软雅黑" size="13px" weight="700" font-style="" opacity="1" y="34.375" transform="rotate(0)"><tspan id="SvgjsTspan1191" dy="16.25" x="51.5"><tspan id="SvgjsTspan1192" style="">线程退出</tspan></tspan></text></g></g><g id="SvgjsG1193"><path id="SvgjsPath1194" d="M362.75 217L400 217L400 217L435.29999999999995 217" stroke="#3b4296" stroke-width="1.5" fill="none" marker-end="url(#SvgjsMarker1195)"></path><rect id="SvgjsRect1197" width="20" height="18" x="385.5318518518518" y="208" fill="#ffffff"></rect><text id="SvgjsText1198" font-family="微软雅黑" text-anchor="middle" font-size="13px" width="20px" fill="#3b4296" font-weight="400" align="top" lineHeight="16px" anchor="middle" family="微软雅黑" size="13px" weight="400" font-style="" opacity="1" y="205.375" transform="rotate(0)"><tspan id="SvgjsTspan1199" dy="16.25" x="395.5318518518518"><tspan id="SvgjsTspan1200" style="">Yes</tspan></tspan></text></g><g id="SvgjsG1201" transform="translate(438,172)"><path id="SvgjsPath1202" d="M 0 45C 0 -15 103 -15 103 45C 103 105 0 105 0 45Z" stroke="rgba(44,118,155,1)" stroke-width="1.5" fill-opacity="1" fill="#36a9cc"></path><g id="SvgjsG1203"><text id="SvgjsText1204" font-family="微软雅黑" text-anchor="middle" font-size="13px" width="83px" fill="#f3dfff" font-weight="700" align="middle" lineHeight="125%" anchor="middle" family="微软雅黑" size="13px" weight="700" font-style="" opacity="1" y="25.875" transform="rotate(0)"><tspan id="SvgjsTspan1205" dy="16.25" x="51.5"><tspan id="SvgjsTspan1206" style="">堵塞在条件变</tspan></tspan><tspan id="SvgjsTspan1207" dy="16.25" x="51.5"><tspan id="SvgjsTspan1208" style="">量队列内</tspan></tspan></text></g></g><g id="SvgjsG1209"><path id="SvgjsPath1210" d="M298.5 259.25L298.5 299.69230769230774L298.5 299.69230769230774L298.5 338.1846153846154" stroke="#3b4296" stroke-width="1.5" fill="none" marker-end="url(#SvgjsMarker1211)"></path><rect id="SvgjsRect1213" width="19" height="18" x="289" y="288.73062500000003" fill="#ffffff"></rect><text id="SvgjsText1214" font-family="微软雅黑" text-anchor="middle" font-size="13px" width="19px" fill="#3b4296" font-weight="400" align="top" lineHeight="16px" anchor="middle" family="微软雅黑" size="13px" weight="400" font-style="" opacity="1" y="286.10562500000003" transform="rotate(0)"><tspan id="SvgjsTspan1215" dy="16.25" x="298.5"><tspan id="SvgjsTspan1216" style="">No</tspan></tspan></text></g><g id="SvgjsG1217" transform="translate(235,340.8846153846154)"><path id="SvgjsPath1218" d="M 27.666666666666668 0L 99.33333333333333 0C 136.22222222222223 0 136.22222222222223 83 99.33333333333333 83L 27.666666666666668 83C -9.222222222222223 83 -9.222222222222223 0 27.666666666666668 0Z" stroke="rgba(44,118,155,1)" stroke-width="1.5" fill-opacity="1" fill="#36a9cc"></path><g id="SvgjsG1219"><text id="SvgjsText1220" font-family="微软雅黑" text-anchor="middle" font-size="13px" width="107px" fill="#f3dfff" font-weight="700" align="middle" lineHeight="125%" anchor="middle" family="微软雅黑" size="13px" weight="700" font-style="" opacity="1" y="30.875" transform="rotate(0)"><tspan id="SvgjsTspan1221" dy="16.25" x="63.5"><tspan id="SvgjsTspan1222" style="">线程池是否关闭</tspan></tspan></text></g></g><g id="SvgjsG1223"><path id="SvgjsPath1224" d="M362.75 382.3846153846154L435.29999999999995 382.3846153846155" stroke="#3b4296" stroke-width="1.5" fill="none" marker-end="url(#SvgjsMarker1225)"></path><rect id="SvgjsRect1227" width="20" height="18" x="385.5318518518518" y="373.3846153846154" fill="#ffffff"></rect><text id="SvgjsText1228" font-family="微软雅黑" text-anchor="middle" font-size="13px" width="20px" fill="#3b4296" font-weight="400" align="top" lineHeight="16px" anchor="middle" family="微软雅黑" size="13px" weight="400" font-style="" opacity="1" y="370.7596153846154" transform="rotate(0)"><tspan id="SvgjsTspan1229" dy="16.25" x="395.5318518518518"><tspan id="SvgjsTspan1230" style="">Yes</tspan></tspan></text></g><g id="SvgjsG1231" transform="translate(438,337.3846153846155)"><path id="SvgjsPath1232" d="M 0 45C 0 -15 103 -15 103 45C 103 105 0 105 0 45Z" stroke="rgba(44,118,155,1)" stroke-width="1.5" fill-opacity="1" fill="#36a9cc"></path><g id="SvgjsG1233"><text id="SvgjsText1234" font-family="微软雅黑" text-anchor="middle" font-size="13px" width="83px" fill="#f3dfff" font-weight="700" align="middle" lineHeight="125%" anchor="middle" family="微软雅黑" size="13px" weight="700" font-style="" opacity="1" y="34.375" transform="rotate(0)"><tspan id="SvgjsTspan1235" dy="16.25" x="51.5"><tspan id="SvgjsTspan1236" style="">线程退出</tspan></tspan></text></g></g><g id="SvgjsG1237"><path id="SvgjsPath1238" d="M298.5 424.6346153846155L298.5 507.87692307692294" stroke="#3b4296" stroke-width="1.5" fill="none" marker-end="url(#SvgjsMarker1239)"></path><rect id="SvgjsRect1241" width="19" height="18" x="289" y="456.21524038461536" fill="#ffffff"></rect><text id="SvgjsText1242" font-family="微软雅黑" text-anchor="middle" font-size="13px" width="19px" fill="#3b4296" font-weight="400" align="top" lineHeight="16px" anchor="middle" family="微软雅黑" size="13px" weight="400" font-style="" opacity="1" y="453.59024038461536" transform="rotate(0)"><tspan id="SvgjsTspan1243" dy="16.25" x="298.5"><tspan id="SvgjsTspan1244" style="">No</tspan></tspan></text></g><g id="SvgjsG1245" transform="translate(215.46153846153845,510.576923076923)"><path id="SvgjsPath1246" d="M 0 0L 166.0769230769231 0L 166.0769230769231 51.61538461538464L 0 51.61538461538464Z" stroke="rgba(44,118,155,1)" stroke-width="1.5" fill-opacity="1" fill="#36a9cc"></path><g id="SvgjsG1247"><text id="SvgjsText1248" font-family="微软雅黑" text-anchor="middle" font-size="13px" width="147px" fill="#f3dfff" font-weight="700" align="middle" lineHeight="125%" anchor="middle" family="微软雅黑" size="13px" weight="700" font-style="" opacity="1" y="15.18269230769232" transform="rotate(0)"><tspan id="SvgjsTspan1249" dy="16.25" x="83.5"><tspan id="SvgjsTspan1250" style="">取出任务并执行</tspan></tspan></text></g></g><g id="SvgjsG1251"><path id="SvgjsPath1252" d="M298.5 562.9423076923076L298.5 592.1923076923076L867 592.1923076923076L867 70L389.7 70" stroke="#3b4296" stroke-width="1.5" fill="none" marker-end="url(#SvgjsMarker1253)"></path></g><g id="SvgjsG1255" transform="translate(144.76923076923077,119.88461538461536)"><path id="SvgjsPath1256" d="M 12.243589743589743 0L 0 0L 0 458.46153846153845L 12.243589743589743 458.46153846153845" stroke="rgba(44,118,155,1)" stroke-width="1.5" fill="none"></path><path id="SvgjsPath1257" d="M 0 0L 73.46153846153845 0L 73.46153846153845 458.46153846153845L 0 458.46153846153845Z" stroke="none" fill="none"></path><g id="SvgjsG1258"><text id="SvgjsText1259" font-family="微软雅黑" text-anchor="middle" font-size="13px" width="54px" fill="#f3dfff" font-weight="700" align="middle" lineHeight="125%" anchor="middle" family="微软雅黑" size="13px" weight="700" font-style="" opacity="1" y="218.60576923076923" transform="rotate(0)"><tspan id="SvgjsTspan1260" dy="16.25" x="37"><tspan id="SvgjsTspan1261" style="fill: rgb(70, 105, 234);">互斥锁</tspan></tspan></text></g></g><g id="SvgjsG1262"><path id="SvgjsPath1263" d="M541.75 217L640.7615384615384 217" stroke="#3b4296" stroke-width="1.5" fill="none" marker-end="url(#SvgjsMarker1264)"></path><rect id="SvgjsRect1266" width="52" height="18" x="560.488547008547" y="208" fill="#ffffff"></rect><text id="SvgjsText1267" font-family="微软雅黑" text-anchor="middle" font-size="13px" width="52px" fill="#3b4296" font-weight="400" align="top" lineHeight="16px" anchor="middle" family="微软雅黑" size="13px" weight="400" font-style="" opacity="1" y="205.375" transform="rotate(0)"><tspan id="SvgjsTspan1268" dy="16.25" x="586.488547008547"><tspan id="SvgjsTspan1269" style="">唤醒操作</tspan></tspan></text></g><g id="SvgjsG1270" transform="translate(643.4615384615385,175.5)"><path id="SvgjsPath1271" d="M 27.666666666666668 0L 110.48717948717952 0C 147.37606837606842 0 147.37606837606842 83 110.48717948717952 83L 27.666666666666668 83C -9.222222222222223 83 -9.222222222222223 0 27.666666666666668 0Z" stroke="rgba(44,118,155,1)" stroke-width="1.5" fill-opacity="1" fill="#36a9cc"></path><g id="SvgjsG1272"><text id="SvgjsText1273" font-family="微软雅黑" text-anchor="middle" font-size="13px" width="119px" fill="#f3dfff" font-weight="700" align="middle" lineHeight="125%" anchor="middle" family="微软雅黑" size="13px" weight="700" font-style="" opacity="1" y="30.875" transform="rotate(0)"><tspan id="SvgjsTspan1274" dy="16.25" x="69.5"><tspan id="SvgjsTspan1275" style="">是否有线程销毁信号</tspan></tspan></text></g></g><g id="SvgjsG1276"><path id="SvgjsPath1277" d="M712.5384615384615 175.44230769230768L712.5384615384615 146.19230769230768L298.5 146.19230769230768L298.5 173.4923076923077" stroke="#3b4296" stroke-width="1.5" fill="none" marker-end="url(#SvgjsMarker1278)"></path><rect id="SvgjsRect1280" width="13" height="18" x="505.28238508347636" y="137.19230769230768" fill="#ffffff"></rect><text id="SvgjsText1281" font-family="微软雅黑" text-anchor="middle" font-size="13px" width="13px" fill="#3b4296" font-weight="400" align="top" lineHeight="16px" anchor="middle" family="微软雅黑" size="13px" weight="400" font-style="" opacity="1" y="134.56730769230768" transform="rotate(0)"><tspan id="SvgjsTspan1282" dy="16.25" x="511.78238508347636"><tspan id="SvgjsTspan1283" style="">无</tspan></tspan></text></g><g id="SvgjsG1284"><path id="SvgjsPath1285" d="M712.5384615384615 259.25L712.5384615384615 297.5576923076924L712.5384615384615 297.5576923076924L712.5384615384615 333.9153846153847" stroke="#3b4296" stroke-width="1.5" fill="none" marker-end="url(#SvgjsMarker1286)"></path><rect id="SvgjsRect1288" width="13" height="18" x="706.0384615384615" y="287.0416387959866" fill="#ffffff"></rect><text id="SvgjsText1289" font-family="微软雅黑" text-anchor="middle" font-size="13px" width="13px" fill="#3b4296" font-weight="400" align="top" lineHeight="16px" anchor="middle" family="微软雅黑" size="13px" weight="400" font-style="" opacity="1" y="284.4166387959866" transform="rotate(0)"><tspan id="SvgjsTspan1290" dy="16.25" x="712.5384615384615"><tspan id="SvgjsTspan1291" style="">有</tspan></tspan></text></g><g id="SvgjsG1292" transform="translate(661.0384615384615,336.6153846153847)"><path id="SvgjsPath1293" d="M 0 45C 0 -15 103 -15 103 45C 103 105 0 105 0 45Z" stroke="rgba(44,118,155,1)" stroke-width="1.5" fill-opacity="1" fill="#36a9cc"></path><g id="SvgjsG1294"><text id="SvgjsText1295" font-family="微软雅黑" text-anchor="middle" font-size="13px" width="83px" fill="#f3dfff" font-weight="700" align="middle" lineHeight="125%" anchor="middle" family="微软雅黑" size="13px" weight="700" font-style="" opacity="1" y="34.375" transform="rotate(0)"><tspan id="SvgjsTspan1296" dy="16.25" x="51.5"><tspan id="SvgjsTspan1297" style="">线程退出</tspan></tspan></text></g></g></svg>