<svg id="SvgjsSvg1006" width="667.8333333333334" height="617.1923076923076" xmlns="http://www.w3.org/2000/svg" version="1.1" xmlns:xlink="http://www.w3.org/1999/xlink" xmlns:svgjs="http://svgjs.com/svgjs"><defs id="SvgjsDefs1007"><pattern patternUnits="userSpaceOnUse" id="pattern_mark_0" width="300" height="300"><text x="150" y="100" fill="rgba(229,229,229,0.8)" font-size="18" transform="rotate(-45, 150, 150)" style="dominant-baseline: middle; text-anchor: middle;"></text></pattern><pattern patternUnits="userSpaceOnUse" id="pattern_mark_1" width="300" height="300"><text x="150" y="200" fill="rgba(229,229,229,0.8)" font-size="18" transform="rotate(-45, 150, 150)" style="dominant-baseline: middle; text-anchor: middle;"></text></pattern><marker id="SvgjsMarker1019" markerWidth="13" markerHeight="9" refX="9.5" refY="4.5" viewBox="0 0 13 9" orient="auto" markerUnits="userSpaceOnUse" stroke-dasharray="0,0"><path id="SvgjsPath1020" d="M0,0 L13,4.5 L0,9 L0,0" fill="#3b4296" stroke="#3b4296" stroke-width="1"></path></marker><marker id="SvgjsMarker1035" markerWidth="13" markerHeight="9" refX="9.5" refY="4.5" viewBox="0 0 13 9" orient="auto" markerUnits="userSpaceOnUse" stroke-dasharray="0,0"><path id="SvgjsPath1036" d="M0,0 L13,4.5 L0,9 L0,0" fill="#3b4296" stroke="#3b4296" stroke-width="1"></path></marker><marker id="SvgjsMarker1049" markerWidth="13" markerHeight="9" refX="9.5" refY="4.5" viewBox="0 0 13 9" orient="auto" markerUnits="userSpaceOnUse" stroke-dasharray="0,0"><path id="SvgjsPath1050" d="M0,0 L13,4.5 L0,9 L0,0" fill="#3b4296" stroke="#3b4296" stroke-width="1"></path></marker><marker id="SvgjsMarker1065" markerWidth="13" markerHeight="9" refX="9.5" refY="4.5" viewBox="0 0 13 9" orient="auto" markerUnits="userSpaceOnUse" stroke-dasharray="0,0"><path id="SvgjsPath1066" d="M0,0 L13,4.5 L0,9 L0,0" fill="#3b4296" stroke="#3b4296" stroke-width="1"></path></marker><marker id="SvgjsMarker1081" markerWidth="13" markerHeight="9" refX="9.5" refY="4.5" viewBox="0 0 13 9" orient="auto" markerUnits="userSpaceOnUse" stroke-dasharray="0,0"><path id="SvgjsPath1082" d="M0,0 L13,4.5 L0,9 L0,0" fill="#3b4296" stroke="#3b4296" stroke-width="1"></path></marker><marker id="SvgjsMarker1097" markerWidth="13" markerHeight="9" refX="9.5" refY="4.5" viewBox="0 0 13 9" orient="auto" markerUnits="userSpaceOnUse" stroke-dasharray="0,0"><path id="SvgjsPath1098" d="M0,0 L13,4.5 L0,9 L0,0" fill="#3b4296" stroke="#3b4296" stroke-width="1"></path></marker><marker id="SvgjsMarker1111" markerWidth="13" markerHeight="9" refX="9.5" refY="4.5" viewBox="0 0 13 9" orient="auto" markerUnits="userSpaceOnUse" stroke-dasharray="0,0"><path id="SvgjsPath1112" d="M0,0 L13,4.5 L0,9 L0,0" fill="#3b4296" stroke="#3b4296" stroke-width="1"></path></marker><marker id="SvgjsMarker1122" markerWidth="13" markerHeight="9" refX="9.5" refY="4.5" viewBox="0 0 13 9" orient="auto" markerUnits="userSpaceOnUse" stroke-dasharray="0,0"><path id="SvgjsPath1123" d="M0,0 L13,4.5 L0,9 L0,0" fill="#3b4296" stroke="#3b4296" stroke-width="1"></path></marker><marker id="SvgjsMarker1126" markerWidth="13" markerHeight="9" refX="9.5" refY="4.5" viewBox="0 0 13 9" orient="auto" markerUnits="userSpaceOnUse" stroke-dasharray="0,0"><path id="SvgjsPath1127" d="M0,0 L13,4.5 L0,9 L0,0" fill="#3b4296" stroke="#3b4296" stroke-width="1"></path></marker></defs><rect id="svgbackgroundid" width="667.8333333333334" height="617.1923076923076" fill="#ffffff"></rect><rect id="SvgjsRect1009" width="667.8333333333334" height="617.1923076923076" fill="url(#pattern_mark_0)"></rect><rect id="SvgjsRect1010" width="667.8333333333334" height="617.1923076923076" fill="url(#pattern_mark_1)"></rect><g id="SvgjsG1011" transform="translate(210,39.5)"><path id="SvgjsPath1012" d="M 0 4Q 0 0 4 0L 173 0Q 177 0 177 4L 177 57Q 177 61 173 61L 4 61Q 0 61 0 57Z" stroke="rgba(44,118,155,1)" stroke-width="1.5" fill-opacity="1" fill="#36a9cc"></path><g id="SvgjsG1013"><text id="SvgjsText1014" font-family="微软雅黑" text-anchor="middle" font-size="13px" width="157px" fill="#f3dfff" font-weight="700" align="middle" lineHeight="125%" anchor="middle" family="微软雅黑" size="13px" weight="700" font-style="" opacity="1" y="19.875" transform="rotate(0)"><tspan id="SvgjsTspan1015" dy="16.25" x="88.5"><tspan id="SvgjsTspan1016" style="">线程池是否关闭</tspan></tspan></text></g></g><g id="SvgjsG1017"><path id="SvgjsPath1018" d="M298.5 101.25L298.5 138L298.5 138L298.5 172.8" stroke="#3b4296" stroke-width="1.5" fill="none" marker-end="url(#SvgjsMarker1019)"></path><rect id="SvgjsRect1021" width="20" height="18" x="288.5" y="128.025" fill="#ffffff"></rect><text id="SvgjsText1022" font-family="微软雅黑" text-anchor="middle" font-size="13px" width="20px" fill="#3b4296" font-weight="700" align="top" lineHeight="16px" anchor="middle" family="微软雅黑" size="13px" weight="700" font-style="" opacity="1" y="125.4" transform="rotate(0)"><tspan id="SvgjsTspan1023" dy="16.25" x="298.5"><tspan id="SvgjsTspan1024" style="">No</tspan></tspan></text></g><g id="SvgjsG1025" transform="translate(235,175.5)"><path id="SvgjsPath1026" d="M 27.666666666666668 0L 99.33333333333333 0C 136.22222222222223 0 136.22222222222223 83 99.33333333333333 83L 27.666666666666668 83C -9.222222222222223 83 -9.222222222222223 0 27.666666666666668 0Z" stroke="rgba(44,118,155,1)" stroke-width="1.5" fill-opacity="1" fill="#36a9cc"></path><g id="SvgjsG1027"><text id="SvgjsText1028" font-family="微软雅黑" text-anchor="middle" font-size="13px" width="107px" fill="#f3dfff" font-weight="700" align="middle" lineHeight="125%" anchor="middle" family="微软雅黑" size="13px" weight="700" font-style="" opacity="1" y="22.375" transform="rotate(0)"><tspan id="SvgjsTspan1029" dy="16.25" x="63.5"><tspan id="SvgjsTspan1030" style="">检查当前待处理任</tspan></tspan><tspan id="SvgjsTspan1031" dy="16.25" x="63.5"><tspan id="SvgjsTspan1032" style="">务是否过多</tspan></tspan></text></g></g><g id="SvgjsG1033"><path id="SvgjsPath1034" d="M209.25 70L169 70L169 70L130.7 70" stroke="#3b4296" stroke-width="1.5" fill="none" marker-end="url(#SvgjsMarker1035)"></path><rect id="SvgjsRect1037" width="21" height="18" x="167.13841463414633" y="61" fill="#ffffff"></rect><text id="SvgjsText1038" font-family="微软雅黑" text-anchor="middle" font-size="13px" width="21px" fill="#3b4296" font-weight="700" align="top" lineHeight="16px" anchor="middle" family="微软雅黑" size="13px" weight="700" font-style="" opacity="1" y="58.375" transform="rotate(0)"><tspan id="SvgjsTspan1039" dy="16.25" x="177.63841463414633"><tspan id="SvgjsTspan1040" style="">Yes</tspan></tspan></text></g><g id="SvgjsG1041" transform="translate(25,25)"><path id="SvgjsPath1042" d="M 0 45C 0 -15 103 -15 103 45C 103 105 0 105 0 45Z" stroke="rgba(44,118,155,1)" stroke-width="1.5" fill-opacity="1" fill="#36a9cc"></path><g id="SvgjsG1043"><text id="SvgjsText1044" font-family="微软雅黑" text-anchor="middle" font-size="13px" width="83px" fill="#f3dfff" font-weight="700" align="middle" lineHeight="125%" anchor="middle" family="微软雅黑" size="13px" weight="700" font-style="" opacity="1" y="34.375" transform="rotate(0)"><tspan id="SvgjsTspan1045" dy="16.25" x="51.5"><tspan id="SvgjsTspan1046" style="">线程退出</tspan></tspan></text></g></g><g id="SvgjsG1047"><path id="SvgjsPath1048" d="M362.75 217L400 217L400 217L435.29999999999995 217" stroke="#3b4296" stroke-width="1.5" fill="none" marker-end="url(#SvgjsMarker1049)"></path><rect id="SvgjsRect1051" width="21" height="18" x="385.0318518518518" y="208" fill="#ffffff"></rect><text id="SvgjsText1052" font-family="微软雅黑" text-anchor="middle" font-size="13px" width="21px" fill="#3b4296" font-weight="700" align="top" lineHeight="16px" anchor="middle" family="微软雅黑" size="13px" weight="700" font-style="" opacity="1" y="205.375" transform="rotate(0)"><tspan id="SvgjsTspan1053" dy="16.25" x="395.5318518518518"><tspan id="SvgjsTspan1054" style="">Yes</tspan></tspan></text></g><g id="SvgjsG1055" transform="translate(438,172)"><path id="SvgjsPath1056" d="M 0 45C 0 -15 103 -15 103 45C 103 105 0 105 0 45Z" stroke="rgba(44,118,155,1)" stroke-width="1.5" fill-opacity="1" fill="#36a9cc"></path><g id="SvgjsG1057"><text id="SvgjsText1058" font-family="微软雅黑" text-anchor="middle" font-size="13px" width="83px" fill="#f3dfff" font-weight="700" align="middle" lineHeight="125%" anchor="middle" family="微软雅黑" size="13px" weight="700" font-style="" opacity="1" y="25.875" transform="rotate(0)"><tspan id="SvgjsTspan1059" dy="16.25" x="51.5"><tspan id="SvgjsTspan1060" style="">创建新的工作</tspan></tspan><tspan id="SvgjsTspan1061" dy="16.25" x="51.5"><tspan id="SvgjsTspan1062" style="">线程</tspan></tspan></text></g></g><g id="SvgjsG1063"><path id="SvgjsPath1064" d="M298.5 259.25L298.5 299.69230769230774L298.5 299.69230769230774L298.5 338.1846153846154" stroke="#3b4296" stroke-width="1.5" fill="none" marker-end="url(#SvgjsMarker1065)"></path><rect id="SvgjsRect1067" width="20" height="18" x="288.5" y="288.73062500000003" fill="#ffffff"></rect><text id="SvgjsText1068" font-family="微软雅黑" text-anchor="middle" font-size="13px" width="20px" fill="#3b4296" font-weight="700" align="top" lineHeight="16px" anchor="middle" family="微软雅黑" size="13px" weight="700" font-style="" opacity="1" y="286.10562500000003" transform="rotate(0)"><tspan id="SvgjsTspan1069" dy="16.25" x="298.5"><tspan id="SvgjsTspan1070" style="">No</tspan></tspan></text></g><g id="SvgjsG1071" transform="translate(235,340.8846153846154)"><path id="SvgjsPath1072" d="M 27.666666666666668 0L 99.33333333333333 0C 136.22222222222223 0 136.22222222222223 83 99.33333333333333 83L 27.666666666666668 83C -9.222222222222223 83 -9.222222222222223 0 27.666666666666668 0Z" stroke="rgba(44,118,155,1)" stroke-width="1.5" fill-opacity="1" fill="#36a9cc"></path><g id="SvgjsG1073"><text id="SvgjsText1074" font-family="微软雅黑" text-anchor="middle" font-size="13px" width="107px" fill="#f3dfff" font-weight="700" align="middle" lineHeight="125%" anchor="middle" family="微软雅黑" size="13px" weight="700" font-style="" opacity="1" y="22.375" transform="rotate(0)"><tspan id="SvgjsTspan1075" dy="16.25" x="63.5"><tspan id="SvgjsTspan1076" style="">检查当前空闲线程</tspan></tspan><tspan id="SvgjsTspan1077" dy="16.25" x="63.5"><tspan id="SvgjsTspan1078" style="">是否过多</tspan></tspan></text></g></g><g id="SvgjsG1079"><path id="SvgjsPath1080" d="M362.75 382.3846153846154L435.29999999999995 382.3846153846155" stroke="#3b4296" stroke-width="1.5" fill="none" marker-end="url(#SvgjsMarker1081)"></path><rect id="SvgjsRect1083" width="20" height="18" x="385.5318518518518" y="373.3846153846154" fill="#ffffff"></rect><text id="SvgjsText1084" font-family="微软雅黑" text-anchor="middle" font-size="13px" width="20px" fill="#3b4296" font-weight="400" align="top" lineHeight="16px" anchor="middle" family="微软雅黑" size="13px" weight="400" font-style="" opacity="1" y="370.7596153846154" transform="rotate(0)"><tspan id="SvgjsTspan1085" dy="16.25" x="395.5318518518518"><tspan id="SvgjsTspan1086" style="">Yes</tspan></tspan></text></g><g id="SvgjsG1087" transform="translate(438,337.3846153846155)"><path id="SvgjsPath1088" d="M 0 45C 0 -15 155.66666666666674 -15 155.66666666666674 45C 155.66666666666674 105 0 105 0 45Z" stroke="rgba(44,118,155,1)" stroke-width="1.5" fill-opacity="1" fill="#36a9cc"></path><g id="SvgjsG1089"><text id="SvgjsText1090" font-family="微软雅黑" text-anchor="middle" font-size="13px" width="136px" fill="#f3dfff" font-weight="700" align="middle" lineHeight="125%" anchor="middle" family="微软雅黑" size="13px" weight="700" font-style="" opacity="1" y="25.875" transform="rotate(0)"><tspan id="SvgjsTspan1091" dy="16.25" x="78"><tspan id="SvgjsTspan1092" style="">设置销毁信号并唤醒堵</tspan></tspan><tspan id="SvgjsTspan1093" dy="16.25" x="78"><tspan id="SvgjsTspan1094" style="">塞在条件变量上的线程</tspan></tspan></text></g></g><g id="SvgjsG1095"><path id="SvgjsPath1096" d="M298.5 424.6346153846155L298.5 467.2307692307693L298.5 467.2307692307693L298.5 507.87692307692294" stroke="#3b4296" stroke-width="1.5" fill="none" marker-end="url(#SvgjsMarker1097)"></path><rect id="SvgjsRect1099" width="19" height="18" x="289" y="456.21524038461536" fill="#ffffff"></rect><text id="SvgjsText1100" font-family="微软雅黑" text-anchor="middle" font-size="13px" width="19px" fill="#3b4296" font-weight="400" align="top" lineHeight="16px" anchor="middle" family="微软雅黑" size="13px" weight="400" font-style="" opacity="1" y="453.59024038461536" transform="rotate(0)"><tspan id="SvgjsTspan1101" dy="16.25" x="298.5"><tspan id="SvgjsTspan1102" style="">No</tspan></tspan></text></g><g id="SvgjsG1103" transform="translate(215.46153846153845,510.576923076923)"><path id="SvgjsPath1104" d="M 0 0L 166.0769230769231 0L 166.0769230769231 51.61538461538464L 0 51.61538461538464Z" stroke="rgba(44,118,155,1)" stroke-width="1.5" fill-opacity="1" fill="#36a9cc"></path><g id="SvgjsG1105"><text id="SvgjsText1106" font-family="微软雅黑" text-anchor="middle" font-size="13px" width="147px" fill="#f3dfff" font-weight="700" align="middle" lineHeight="125%" anchor="middle" family="微软雅黑" size="13px" weight="700" font-style="" opacity="1" y="15.18269230769232" transform="rotate(0)"><tspan id="SvgjsTspan1107" dy="16.25" x="83.5"><tspan id="SvgjsTspan1108" style="">睡眠n(s)</tspan></tspan></text></g></g><g id="SvgjsG1109"><path id="SvgjsPath1110" d="M298.5 562.9423076923076L298.5 592.1923076923076L642.8333333333334 592.1923076923076L642.8333333333334 70L389.7 70" stroke="#3b4296" stroke-width="1.5" fill="none" marker-end="url(#SvgjsMarker1111)"></path></g><g id="SvgjsG1113" transform="translate(144.76923076923077,119.88461538461536)"><path id="SvgjsPath1114" d="M 12.243589743589743 0L 0 0L 0 458.46153846153845L 12.243589743589743 458.46153846153845" stroke="rgba(44,118,155,1)" stroke-width="1.5" fill="none"></path><path id="SvgjsPath1115" d="M 0 0L 73.46153846153845 0L 73.46153846153845 458.46153846153845L 0 458.46153846153845Z" stroke="none" fill="none"></path><g id="SvgjsG1116"><text id="SvgjsText1117" font-family="微软雅黑" text-anchor="middle" font-size="13px" width="54px" fill="#f3dfff" font-weight="700" align="middle" lineHeight="125%" anchor="middle" family="微软雅黑" size="13px" weight="700" font-style="" opacity="1" y="218.60576923076923" transform="rotate(0)"><tspan id="SvgjsTspan1118" dy="16.25" x="37"><tspan id="SvgjsTspan1119" style="fill: rgb(70, 105, 234);">互斥锁</tspan></tspan></text></g></g><g id="SvgjsG1120"><path id="SvgjsPath1121" d="M515.8333333333334 428.1346153846155L515.8333333333334 468.9807692307693L298.5 468.9807692307693L298.5 507.87692307692294" stroke="#3b4296" stroke-width="1.5" fill="none" marker-end="url(#SvgjsMarker1122)"></path></g><g id="SvgjsG1124"><path id="SvgjsPath1125" d="M489.5 262.75L489.5 301.44230769230774L298.5 301.44230769230774L298.5 338.1846153846154" stroke="#3b4296" stroke-width="1.5" fill="none" marker-end="url(#SvgjsMarker1126)"></path></g></svg>